Poster: 
http://imgr.us/images/4a0ld17n448d1lney0zf.jpg

Info:

Format : AVI
Format/Info : Audio Video Interleave
File size : 698 MiB
Duration : 1h 59mn
Overall bit rate : 820 Kbps
Writing application : VirtualDubMod 1.5.10.2 (build 2540/release)
Writing library : VirtualDubMod build 2540/release

Video
ID : 0
Format : MPEG-4 Visual
Format profile : Advanced Simple@L5
Format settings, BVOP : 1
Format settings, QPel : No
Format settings, GMC : No warppoints
Format settings, Matrix : Default (H.263)
Codec ID : XVID
Codec ID/Hint : XviD
Duration : 1h 59mn
Bit rate : 730 Kbps
Width : 656 pixels
Height : 256 pixels
Display aspect ratio : 2.667
Frame rate : 23.976 fps
Color space : YUV
Chroma subsampling : 4:2:0
Bit depth : 8 bits
Scan type : Progressive
Compression mode : Lossy
Bits/(Pixel*Frame) : 0.181
Stream size : 622 MiB (89%)
Writing library : XviD 1.2.1 (UTC 2008-12-04)

Audio
ID : 1
Format : MPEG Audio
Format version : Version 1
Format profile : Layer 3
Mode : Joint stereo
Mode extension : MS Stereo
Codec ID : 55
Codec ID/Hint : MP3
Duration : 1h 59mn
Bit rate mode : Constant
Bit rate : 80.0 Kbps
Channel(s) : 2 channels
Sampling rate : 32.0 KHz
Compression mode : Lossy
Stream size : 68.2 MiB (10%)
Alignment : Aligned on interleaves
Interleave, duration : 42 ms (1.00 video frame)
Interleave, preload duration : 504 ms
Writing library : LAME☻WY6B

Screens: 
http://imgr.us/images/enwlbbtsbtn4atbknnwq.jpg 
http://imgr.us/images/hk5rsl36ke2fks5xo54t.png 
http://imgr.us/images/8534b95vs631l82v0zm.jpg 
http://imgr.us/images/24fftn7dxo3n8rnjovz.png 
http://imgr.us/images/chb4bhminvsqenbhxm8p.jpg 
http://imgr.us/images/945zf8mvv0khb3fjxnlj.png




